<svg xmlns="http://www.w3.org/2000/svg" xmlns:xlink="http://www.w3.org/1999/xlink" width="500" zoomAndPan="magnify" viewBox="0 0 375 374.999991" height="500" preserveAspectRatio="xMidYMid meet" version="1.0"><defs><clipPath id="9a5128da46"><path d="M 152.40625 107.617188 L 179 107.617188 L 179 182 L 152.40625 182 Z M 152.40625 107.617188 " clip-rule="nonzero"/></clipPath><clipPath id="4f67588ec7"><path d="M 182 122 L 209 122 L 209 196.117188 L 182 196.117188 Z M 182 122 " clip-rule="nonzero"/></clipPath><clipPath id="213dcbf06b"><path d="M 217 110 L 222.90625 110 L 222.90625 116 L 217 116 Z M 217 110 " clip-rule="nonzero"/></clipPath></defs><g clip-path="url(#9a5128da46)"><path fill="#393536" d="M 152.429688 149.226562 L 152.429688 139.988281 C 154.300781 139.886719 155.714844 139.605469 156.664062 139.144531 C 157.613281 138.679688 158.433594 137.90625 159.125 136.816406 C 159.820312 135.722656 160.292969 134.359375 160.550781 132.714844 C 160.753906 131.484375 160.859375 129.339844 160.859375 126.285156 C 160.859375 121.308594 161.089844 117.835938 161.550781 115.875 C 162.015625 113.910156 162.847656 112.332031 164.054688 111.140625 C 165.257812 109.945312 167.015625 109.003906 169.328125 108.3125 C 170.890625 107.847656 173.355469 107.617188 176.71875 107.617188 L 178.757812 107.617188 L 178.757812 116.816406 C 175.910156 116.816406 174.082031 116.980469 173.273438 117.300781 C 172.464844 117.621094 171.867188 118.105469 171.484375 118.761719 C 171.097656 119.414062 170.90625 120.539062 170.90625 122.128906 C 170.90625 123.746094 170.789062 126.8125 170.558594 131.328125 C 170.429688 133.871094 170.097656 135.929688 169.558594 137.507812 C 169.019531 139.085938 168.332031 140.386719 167.5 141.414062 C 166.664062 142.441406 165.386719 143.507812 163.667969 144.609375 C 165.183594 145.480469 166.421875 146.5 167.382812 147.667969 C 168.347656 148.835938 169.082031 150.253906 169.597656 151.921875 C 170.109375 153.589844 170.441406 155.824219 170.597656 158.621094 C 170.777344 162.878906 170.867188 165.601562 170.867188 166.78125 C 170.867188 168.472656 171.070312 169.652344 171.484375 170.320312 C 171.894531 170.988281 172.515625 171.496094 173.347656 171.84375 C 174.183594 172.1875 175.984375 172.363281 178.757812 172.363281 L 178.757812 181.601562 L 176.71875 181.601562 C 173.253906 181.601562 170.597656 181.324219 168.75 180.773438 C 166.902344 180.21875 165.34375 179.304688 164.074219 178.019531 C 162.800781 176.738281 161.949219 175.152344 161.511719 173.265625 C 161.078125 171.378906 160.859375 168.410156 160.859375 164.355469 C 160.859375 159.632812 160.652344 156.566406 160.242188 155.15625 C 159.679688 153.101562 158.824219 151.632812 157.683594 150.75 C 156.539062 149.863281 154.789062 149.355469 152.429688 149.226562 " fill-opacity="1" fill-rule="nonzero"/></g><path fill="#006666" d="M 210.824219 126.78125 L 204.800781 126.78125 L 204.800781 120.757812 L 210.824219 120.757812 L 210.824219 126.78125 " fill-opacity="1" fill-rule="nonzero"/><path fill="#006666" d="M 209.402344 138.832031 L 204.800781 138.832031 L 204.800781 134.230469 L 209.402344 134.230469 L 209.402344 138.832031 " fill-opacity="1" fill-rule="nonzero"/><g clip-path="url(#4f67588ec7)"><path fill="#006666" d="M 191.875 131.386719 L 191.875 126.78125 L 196.480469 126.78125 L 196.480469 131.386719 Z M 203.585938 152.90625 C 202.429688 152.019531 201.570312 150.550781 201.007812 148.5 C 200.695312 147.339844 200.511719 145.121094 200.449219 141.84375 L 196.480469 141.84375 L 196.480469 135.820312 L 200.363281 135.820312 C 200.265625 133.496094 200.0625 131.6875 199.753906 130.390625 C 199.304688 128.503906 198.453125 126.910156 197.195312 125.617188 C 195.9375 124.320312 194.386719 123.402344 192.539062 122.863281 C 190.691406 122.324219 188.035156 122.054688 184.570312 122.054688 L 182.53125 122.054688 L 182.53125 131.253906 C 185.429688 131.253906 187.296875 131.429688 188.128906 131.773438 C 188.964844 132.121094 189.542969 132.617188 189.863281 133.257812 C 190.183594 133.898438 190.355469 135.179688 190.382812 137.105469 C 190.511719 143.210938 190.714844 147.164062 191 148.960938 C 191.433594 151.578125 192.253906 153.734375 193.460938 155.425781 C 194.332031 156.609375 195.71875 157.816406 197.621094 159.046875 C 196.15625 159.894531 194.957031 160.875 194.019531 161.992188 C 193.082031 163.105469 192.332031 164.46875 191.769531 166.070312 C 191.203125 167.675781 190.855469 169.8125 190.730469 172.480469 C 190.523438 176.894531 190.414062 179.882812 190.402344 181.449219 C 190.386719 183.011719 190.183594 184.125 189.785156 184.777344 C 189.386719 185.433594 188.765625 185.933594 187.917969 186.28125 C 187.070312 186.625 185.273438 186.800781 182.53125 186.800781 L 182.53125 196.039062 L 184.570312 196.039062 C 187.929688 196.039062 190.394531 195.804688 191.960938 195.34375 C 194.296875 194.652344 196.066406 193.707031 197.273438 192.515625 C 198.476562 191.320312 199.304688 189.738281 199.753906 187.761719 C 200.203125 185.785156 200.429688 182.308594 200.429688 177.328125 C 200.429688 174.300781 200.53125 172.171875 200.738281 170.941406 C 201.019531 169.296875 201.5 167.929688 202.179688 166.839844 C 202.859375 165.75 203.675781 164.972656 204.625 164.511719 C 205.574219 164.050781 206.984375 163.769531 208.859375 163.664062 L 208.859375 154.425781 C 206.496094 154.300781 204.738281 153.792969 203.585938 152.90625 " fill-opacity="1" fill-rule="nonzero"/></g><g clip-path="url(#213dcbf06b)"><path fill="#006666" d="M 222.574219 115.082031 L 217.96875 115.082031 L 217.96875 110.480469 L 222.574219 110.480469 L 222.574219 115.082031 " fill-opacity="1" fill-rule="nonzero"/></g><path fill="#006666" d="M 199.492188 120.757812 L 190.898438 120.757812 L 190.898438 112.164062 L 199.492188 112.164062 L 199.492188 120.757812 " fill-opacity="1" fill-rule="nonzero"/></svg>