<svg xmlns="http://www.w3.org/2000/svg" xmlns:xlink="http://www.w3.org/1999/xlink" width="500" zoomAndPan="magnify" viewBox="0 0 375 374.999991" height="500" preserveAspectRatio="xMidYMid meet" version="1.0"><defs><clipPath id="065af33453"><path d="M 38.671875 0 L 151 0 L 151 314 L 38.671875 314 Z M 38.671875 0 " clip-rule="nonzero"/></clipPath><clipPath id="4a1d5ac820"><path d="M 316 12 L 336.421875 12 L 336.421875 32 L 316 32 Z M 316 12 " clip-rule="nonzero"/></clipPath></defs><g clip-path="url(#065af33453)"><path fill="#393536" d="M 38.765625 176.488281 L 38.765625 137.308594 C 46.707031 136.875 52.695312 135.675781 56.722656 133.714844 C 60.75 131.753906 64.234375 128.46875 67.171875 123.839844 C 70.113281 119.214844 72.125 113.421875 73.214844 106.453125 C 74.082031 101.226562 74.519531 92.140625 74.519531 79.1875 C 74.519531 58.074219 75.496094 43.351562 77.457031 35.027344 C 79.417969 26.703125 82.949219 20.007812 88.066406 14.949219 C 93.183594 9.886719 100.640625 5.886719 110.433594 2.949219 C 117.070312 0.988281 127.519531 0.0117188 141.777344 0.0117188 L 150.429688 0.0117188 L 150.429688 39.03125 C 138.351562 39.03125 130.59375 39.710938 127.167969 41.070312 C 123.738281 42.433594 121.210938 44.496094 119.574219 47.269531 C 117.941406 50.046875 117.128906 54.808594 117.128906 61.558594 C 117.128906 68.414062 116.636719 81.421875 115.65625 100.574219 C 115.113281 111.347656 113.699219 120.085938 111.414062 126.777344 C 109.128906 133.46875 106.214844 138.996094 102.679688 143.347656 C 99.140625 147.699219 93.726562 152.21875 86.4375 156.898438 C 92.855469 160.597656 98.109375 164.925781 102.191406 169.875 C 106.273438 174.828125 109.398438 180.839844 111.578125 187.917969 C 113.753906 194.992188 115.167969 204.460938 115.820312 216.320312 C 116.582031 234.390625 116.960938 245.925781 116.960938 250.933594 C 116.960938 258.113281 117.832031 263.117188 119.574219 265.949219 C 121.316406 268.78125 123.957031 270.933594 127.492188 272.402344 C 131.027344 273.867188 138.675781 274.601562 150.429688 274.601562 L 150.429688 313.785156 L 141.777344 313.785156 C 127.085938 313.785156 115.820312 312.609375 107.984375 310.273438 C 100.148438 307.933594 93.539062 304.042969 88.148438 298.601562 C 82.761719 293.15625 79.140625 286.4375 77.292969 278.4375 C 75.441406 270.4375 74.519531 257.839844 74.519531 240.648438 C 74.519531 220.625 73.644531 207.613281 71.90625 201.628906 C 69.511719 192.921875 65.890625 186.691406 61.050781 182.9375 C 56.203125 179.179688 48.777344 177.03125 38.765625 176.488281 " fill-opacity="1" fill-rule="nonzero"/></g><path fill="#006666" d="M 286.441406 81.292969 L 260.886719 81.292969 L 260.886719 55.742188 L 286.441406 55.742188 L 286.441406 81.292969 " fill-opacity="1" fill-rule="nonzero"/><path fill="#006666" d="M 280.40625 132.394531 L 260.886719 132.394531 L 260.886719 112.875 L 280.40625 112.875 L 280.40625 132.394531 " fill-opacity="1" fill-rule="nonzero"/><path fill="#006666" d="M 206.070312 100.816406 L 206.070312 81.292969 L 225.59375 81.292969 L 225.59375 100.816406 Z M 255.730469 192.089844 C 250.832031 188.332031 247.1875 182.105469 244.792969 173.398438 C 243.476562 168.484375 242.691406 159.070312 242.4375 145.171875 L 225.59375 145.171875 L 225.59375 119.617188 L 242.066406 119.617188 C 241.65625 109.765625 240.796875 102.089844 239.484375 96.585938 C 237.582031 88.585938 233.960938 81.839844 228.628906 76.34375 C 223.296875 70.851562 216.714844 66.957031 208.875 64.667969 C 201.039062 62.382812 189.777344 61.242188 175.082031 61.242188 L 166.429688 61.242188 L 166.429688 100.257812 C 178.726562 100.257812 186.648438 100.992188 190.183594 102.460938 C 193.71875 103.933594 196.167969 106.03125 197.53125 108.75 C 198.890625 111.46875 199.625 116.910156 199.734375 125.074219 C 200.277344 150.976562 201.148438 167.738281 202.347656 175.355469 C 204.195312 186.457031 207.675781 195.597656 212.796875 202.78125 C 216.492188 207.789062 222.371094 212.90625 230.425781 218.128906 C 224.222656 221.71875 219.132812 225.882812 215.160156 230.617188 C 211.1875 235.351562 208.003906 241.121094 205.609375 247.921875 C 203.21875 254.722656 201.75 263.785156 201.203125 275.105469 C 200.332031 293.824219 199.871094 306.5 199.816406 313.140625 C 199.757812 319.777344 198.890625 324.488281 197.203125 327.261719 C 195.515625 330.039062 192.878906 332.160156 189.285156 333.632812 C 185.695312 335.101562 178.074219 335.835938 166.429688 335.835938 L 166.429688 375.015625 L 175.082031 375.015625 C 189.339844 375.015625 199.789062 374.035156 206.425781 372.078125 C 216.332031 369.136719 223.835938 365.140625 228.960938 360.078125 C 234.070312 355.015625 237.582031 348.296875 239.484375 339.914062 C 241.390625 331.53125 242.34375 316.789062 242.34375 295.671875 C 242.34375 282.832031 242.777344 273.796875 243.648438 268.574219 C 244.847656 261.609375 246.886719 255.8125 249.769531 251.1875 C 252.652344 246.5625 256.109375 243.269531 260.140625 241.3125 C 264.160156 239.351562 270.152344 238.152344 278.097656 237.71875 L 278.097656 198.539062 C 268.082031 197.996094 260.628906 195.84375 255.730469 192.089844 " fill-opacity="1" fill-rule="nonzero"/><g clip-path="url(#4a1d5ac820)"><path fill="#006666" d="M 336.257812 31.667969 L 316.738281 31.667969 L 316.738281 12.144531 L 336.257812 12.144531 L 336.257812 31.667969 " fill-opacity="1" fill-rule="nonzero"/></g><path fill="#006666" d="M 238.371094 55.742188 L 201.925781 55.742188 L 201.925781 19.296875 L 238.371094 19.296875 L 238.371094 55.742188 " fill-opacity="1" fill-rule="nonzero"/></svg>